<mxfile host="app.diagrams.net" modified="2022-11-04T04:12:00.254Z" agent="5.0 (Windows NT 10.0; Win64; x64) AppleWebKit/537.36 (KHTML, like Gecko) Chrome/107.0.0.0 Safari/537.36" etag="E8PFG4N8BHDk-tqG6G33" version="20.5.1" type="github">
  <diagram id="C5RBs43oDa-KdzZeNtuy" name="Page-1">
    <mxGraphModel dx="650" dy="614" grid="1" gridSize="10" guides="1" tooltips="1" connect="1" arrows="1" fold="1" page="1" pageScale="1" pageWidth="827" pageHeight="1169" math="0" shadow="0">
      <root>
        <mxCell id="WIyWlLk6GJQsqaUBKTNV-0" />
        <mxCell id="WIyWlLk6GJQsqaUBKTNV-1" parent="WIyWlLk6GJQsqaUBKTNV-0" />
        <mxCell id="ll7Lb-LY3XUXLECx4B3m-1" style="edgeStyle=orthogonalEdgeStyle;rounded=0;orthogonalLoop=1;jettySize=auto;html=1;" edge="1" parent="WIyWlLk6GJQsqaUBKTNV-1" source="ll7Lb-LY3XUXLECx4B3m-0">
          <mxGeometry relative="1" as="geometry">
            <mxPoint x="320" y="200" as="targetPoint" />
          </mxGeometry>
        </mxCell>
        <mxCell id="ll7Lb-LY3XUXLECx4B3m-0" value="START" style="strokeWidth=2;html=1;shape=mxgraph.flowchart.terminator;whiteSpace=wrap;" vertex="1" parent="WIyWlLk6GJQsqaUBKTNV-1">
          <mxGeometry x="270" y="90" width="100" height="60" as="geometry" />
        </mxCell>
        <mxCell id="ll7Lb-LY3XUXLECx4B3m-3" style="edgeStyle=orthogonalEdgeStyle;rounded=0;orthogonalLoop=1;jettySize=auto;html=1;" edge="1" parent="WIyWlLk6GJQsqaUBKTNV-1" source="ll7Lb-LY3XUXLECx4B3m-2">
          <mxGeometry relative="1" as="geometry">
            <mxPoint x="320" y="330" as="targetPoint" />
          </mxGeometry>
        </mxCell>
        <mxCell id="ll7Lb-LY3XUXLECx4B3m-2" value="&lt;span style=&quot;font-size: 11pt; line-height: 103%; font-family: Calibri, sans-serif;&quot;&gt;DECLARE&lt;br/&gt;num as INTEGER&lt;/span&gt;" style="shape=hexagon;perimeter=hexagonPerimeter2;whiteSpace=wrap;html=1;fixedSize=1;" vertex="1" parent="WIyWlLk6GJQsqaUBKTNV-1">
          <mxGeometry x="260" y="200" width="120" height="80" as="geometry" />
        </mxCell>
        <mxCell id="ll7Lb-LY3XUXLECx4B3m-6" style="edgeStyle=orthogonalEdgeStyle;rounded=0;orthogonalLoop=1;jettySize=auto;html=1;" edge="1" parent="WIyWlLk6GJQsqaUBKTNV-1" source="ll7Lb-LY3XUXLECx4B3m-5">
          <mxGeometry relative="1" as="geometry">
            <mxPoint x="320" y="440" as="targetPoint" />
          </mxGeometry>
        </mxCell>
        <mxCell id="ll7Lb-LY3XUXLECx4B3m-5" value="&lt;span style=&quot;font-size: 11pt; line-height: 103%; font-family: Calibri, sans-serif;&quot;&gt;PRINT&lt;br/&gt;“Enter a random number”&lt;/span&gt;" style="shape=parallelogram;perimeter=parallelogramPerimeter;whiteSpace=wrap;html=1;fixedSize=1;" vertex="1" parent="WIyWlLk6GJQsqaUBKTNV-1">
          <mxGeometry x="230" y="330" width="180" height="60" as="geometry" />
        </mxCell>
        <mxCell id="ll7Lb-LY3XUXLECx4B3m-8" style="edgeStyle=orthogonalEdgeStyle;rounded=0;orthogonalLoop=1;jettySize=auto;html=1;" edge="1" parent="WIyWlLk6GJQsqaUBKTNV-1" source="ll7Lb-LY3XUXLECx4B3m-7">
          <mxGeometry relative="1" as="geometry">
            <mxPoint x="320" y="540" as="targetPoint" />
          </mxGeometry>
        </mxCell>
        <mxCell id="ll7Lb-LY3XUXLECx4B3m-7" value="&lt;span style=&quot;font-size: 11pt; line-height: 103%; font-family: Calibri, sans-serif;&quot;&gt;READ“num”&lt;/span&gt;" style="shape=parallelogram;perimeter=parallelogramPerimeter;whiteSpace=wrap;html=1;fixedSize=1;" vertex="1" parent="WIyWlLk6GJQsqaUBKTNV-1">
          <mxGeometry x="260" y="440" width="120" height="60" as="geometry" />
        </mxCell>
        <mxCell id="ll7Lb-LY3XUXLECx4B3m-11" style="edgeStyle=orthogonalEdgeStyle;rounded=0;orthogonalLoop=1;jettySize=auto;html=1;" edge="1" parent="WIyWlLk6GJQsqaUBKTNV-1" source="ll7Lb-LY3XUXLECx4B3m-9">
          <mxGeometry relative="1" as="geometry">
            <mxPoint x="200" y="640" as="targetPoint" />
          </mxGeometry>
        </mxCell>
        <mxCell id="ll7Lb-LY3XUXLECx4B3m-12" style="edgeStyle=orthogonalEdgeStyle;rounded=0;orthogonalLoop=1;jettySize=auto;html=1;" edge="1" parent="WIyWlLk6GJQsqaUBKTNV-1" source="ll7Lb-LY3XUXLECx4B3m-9">
          <mxGeometry relative="1" as="geometry">
            <mxPoint x="440" y="640" as="targetPoint" />
          </mxGeometry>
        </mxCell>
        <mxCell id="ll7Lb-LY3XUXLECx4B3m-9" value="&lt;span style=&quot;font-size: 11pt; line-height: 103%; font-family: Calibri, sans-serif;&quot;&gt;IF&lt;br/&gt;num % 2 == 0&lt;/span&gt;" style="rhombus;whiteSpace=wrap;html=1;" vertex="1" parent="WIyWlLk6GJQsqaUBKTNV-1">
          <mxGeometry x="252.5" y="540" width="135" height="90" as="geometry" />
        </mxCell>
        <mxCell id="ll7Lb-LY3XUXLECx4B3m-22" style="edgeStyle=orthogonalEdgeStyle;rounded=0;orthogonalLoop=1;jettySize=auto;html=1;entryX=0;entryY=0.5;entryDx=0;entryDy=0;" edge="1" parent="WIyWlLk6GJQsqaUBKTNV-1" source="ll7Lb-LY3XUXLECx4B3m-13" target="ll7Lb-LY3XUXLECx4B3m-21">
          <mxGeometry relative="1" as="geometry">
            <Array as="points">
              <mxPoint x="200" y="755" />
            </Array>
          </mxGeometry>
        </mxCell>
        <mxCell id="ll7Lb-LY3XUXLECx4B3m-13" value="&lt;span style=&quot;font-size: 11pt; line-height: 103%; font-family: Calibri, sans-serif;&quot;&gt;PRINT num,“is an even number”&lt;/span&gt;" style="shape=parallelogram;perimeter=parallelogramPerimeter;whiteSpace=wrap;html=1;fixedSize=1;" vertex="1" parent="WIyWlLk6GJQsqaUBKTNV-1">
          <mxGeometry x="110" y="640" width="170" height="60" as="geometry" />
        </mxCell>
        <mxCell id="ll7Lb-LY3XUXLECx4B3m-23" style="edgeStyle=orthogonalEdgeStyle;rounded=0;orthogonalLoop=1;jettySize=auto;html=1;exitX=0.5;exitY=1;exitDx=0;exitDy=0;entryX=1;entryY=0.5;entryDx=0;entryDy=0;" edge="1" parent="WIyWlLk6GJQsqaUBKTNV-1" source="ll7Lb-LY3XUXLECx4B3m-14" target="ll7Lb-LY3XUXLECx4B3m-21">
          <mxGeometry relative="1" as="geometry" />
        </mxCell>
        <mxCell id="ll7Lb-LY3XUXLECx4B3m-14" value="&lt;span style=&quot;font-size: 11pt; line-height: 103%; font-family: Calibri, sans-serif;&quot;&gt;ELSE PRINT num,“is an&lt;br&gt;&amp;nbsp;odd number”&lt;/span&gt;" style="shape=parallelogram;perimeter=parallelogramPerimeter;whiteSpace=wrap;html=1;fixedSize=1;" vertex="1" parent="WIyWlLk6GJQsqaUBKTNV-1">
          <mxGeometry x="360" y="640" width="160" height="60" as="geometry" />
        </mxCell>
        <mxCell id="ll7Lb-LY3XUXLECx4B3m-24" style="edgeStyle=orthogonalEdgeStyle;rounded=0;orthogonalLoop=1;jettySize=auto;html=1;" edge="1" parent="WIyWlLk6GJQsqaUBKTNV-1" source="ll7Lb-LY3XUXLECx4B3m-21">
          <mxGeometry relative="1" as="geometry">
            <mxPoint x="320" y="830" as="targetPoint" />
          </mxGeometry>
        </mxCell>
        <mxCell id="ll7Lb-LY3XUXLECx4B3m-21" value="" style="ellipse;whiteSpace=wrap;html=1;aspect=fixed;" vertex="1" parent="WIyWlLk6GJQsqaUBKTNV-1">
          <mxGeometry x="305" y="740" width="30" height="30" as="geometry" />
        </mxCell>
        <mxCell id="ll7Lb-LY3XUXLECx4B3m-25" value="STOP" style="strokeWidth=2;html=1;shape=mxgraph.flowchart.terminator;whiteSpace=wrap;" vertex="1" parent="WIyWlLk6GJQsqaUBKTNV-1">
          <mxGeometry x="270" y="830" width="100" height="60" as="geometry" />
        </mxCell>
        <mxCell id="ll7Lb-LY3XUXLECx4B3m-26" value="YES" style="text;html=1;align=center;verticalAlign=middle;resizable=0;points=[];autosize=1;strokeColor=none;fillColor=none;" vertex="1" parent="WIyWlLk6GJQsqaUBKTNV-1">
          <mxGeometry x="185" y="555" width="50" height="30" as="geometry" />
        </mxCell>
        <mxCell id="ll7Lb-LY3XUXLECx4B3m-27" value="NO" style="text;html=1;align=center;verticalAlign=middle;resizable=0;points=[];autosize=1;strokeColor=none;fillColor=none;" vertex="1" parent="WIyWlLk6GJQsqaUBKTNV-1">
          <mxGeometry x="410" y="555" width="40" height="30" as="geometry" />
        </mxCell>
      </root>
    </mxGraphModel>
  </diagram>
</mxfile>
